<svg xmlns="http://www.w3.org/2000/svg" viewBox="0 0 512 512">
  <rect width="512" height="512" rx="80" fill="#1a73e8"/>
  <rect x="120" y="100" width="272" height="340" rx="16" fill="white"/>
  <!-- linee testo -->
  <rect x="152" y="160" width="180" height="18" rx="9" fill="#dadce0"/>
  <rect x="152" y="196" width="140" height="14" rx="7" fill="#dadce0"/>
  <rect x="152" y="224" width="160" height="14" rx="7" fill="#dadce0"/>
  <rect x="152" y="252" width="120" height="14" rx="7" fill="#dadce0"/>
  <!-- divisore -->
  <rect x="136" y="288" width="240" height="2" fill="#dadce0"/>
  <!-- totale -->
  <rect x="152" y="310" width="80" height="16" rx="8" fill="#34a853"/>
  <rect x="280" y="310" width="96" height="16" rx="8" fill="#34a853"/>
  <!-- dentelli ricevuta -->
  <path d="M120 420 l16-20 l16 20 l16-20 l16 20 l16-20 l16 20 l16-20 l16 20 l16-20 l16 20 l16-20 l16 20 l16-20 l16 20 l16-20 l16 20" fill="none" stroke="#1a73e8" stroke-width="8"/>
</svg>
